<svg width="23" height="24" viewBox="0 0 23 24" fill="none" xmlns="http://www.w3.org/2000/svg">
<path d="M16.4908 0.475912C20.3893 0.475912 22.9998 3.21289 22.9998 7.28385V16.6804C22.9998 20.7387 20.3893 23.4757 16.4908 23.4757H6.52044C2.62198 23.4757 0 20.7387 0 16.6804V7.28385C0 3.21289 2.62198 0.475912 6.52044 0.475912H16.4908ZM16.3069 8.52584C15.9159 8.13484 14.8809 8.52584 14.8809 8.52584L10.1314 13.2753L8.11893 11.2628C7.72793 10.8718 7.08393 10.8718 6.69294 11.2628C6.30194 11.6538 6.30194 12.2863 6.69294 12.6888L9.42991 15.4143C9.62541 15.6098 9.87841 15.7018 10.1314 15.7018C10.3959 15.7018 10.6489 15.6098 10.8444 15.4143L16.3069 9.95182C16.6978 9.56083 16.3069 8.52584 16.3069 8.52584Z" fill="#F4F4F4"/>
</svg>
